PathFileType	4	(X/Y/Z)	C:/Users/beibeiliu/ov580/test_trc/User3\sequence.39_training_dense_left.trc
DataRate	CameraRate	NumFrames	NumMarkers	Units	OrigDataRate	OrigDataStartFrame	OrigNumFrames
120	120	23	19	mm	120	1	84
Frame#	Time	ThumbCMC			ThumbMCP			ThumbIP			ThumbTip			IndexMCP			IndexPIP			IndexTip			MiddleMCP			MiddlePIP			MiddleTip			RingMCP			RingPIP			RingTip			PinkyMCP			PinkyPIP			PinkyTip			BackHand1			BackHand2			BackHand3	
		X0	Y0	Z0	X1	Y1	Z1	X2	Y2	Z2	X3	Y3	Z3	X4	Y4	Z4	X5	Y5	Z5	X6	Y6	Z6	X7	Y7	Z7	X8	Y8	Z8	X9	Y9	Z9	X10	Y10	Z10	X11	Y11	Z11	X12	Y12	Z12	X13	Y13	Z13	X14	Y14	Z14	X15	Y15	Z15	X16	Y16	Z16	X17	Y17	Z17	X18	Y18	Z18	
0	0	-96.847	-28.2692	47.5203	-81.3522	-41.1948	24.3736	-65.8851	-51.171	-0.687761	-61.7936	-62.7843	-24.9511	-121.469	-10.2863	-26.4226	-114.105	-14.0914	-53.5873	-109.987	-26.509	-82.8867	-146.16	-8.37242	-30.5878	-148.219	-11.6661	-60.6784	-149.636	-27.2431	-90.4309	-164.838	-16.2898	-23.5944	-170.603	-18.8184	-46.3534	-175.79	-31.6816	-71.6924	-186.29	-28.0942	-5.05415	-193.576	-31.7228	-23.4406	-197.632	-39.2413	-48.0811	-161.431	-7.435	27.672	-160.076	-8.64675	62.5507	-128.985	-3.62452	40.3102	
1	0.00833333	-99.4661	-29.0707	45.1336	-81.0581	-40.6581	23.1702	-71.4479	-51.426	-0.79746	-62.9471	-63.7521	-23.868	-122.604	-10.1291	-28.3717	-116.309	-14.6245	-58.2545	-112.66	-27.7832	-83.8308	-146.569	-8.09764	-33.6533	-148.002	-11.0726	-58.8568	-150.817	-27.7826	-90.833	-170.168	-16.6544	-21.6175	-170.939	-19.759	-47.2503	-177.116	-34.0696	-76.8007	-184.036	-28.9091	-2.56739	-195.995	-33.6885	-29.1165	-201.617	-40.9562	-47.4841	-164.041	-9.16378	30.9883	-160.516	-7.46993	59.3123	-129.163	-4.53395	38.0828	
2	0.0166667	-100.517	-30.2628	47.0494	-83.7755	-41.4486	25.8666	-68.4992	-52.8991	-3.51558	-64.5217	-63.3143	-19.2616	-118.192	-10.986	-31.7283	-117.119	-15.2797	-55.9673	-109.103	-26.4306	-80.0904	-149.668	-9.50538	-30.2853	-149.359	-13.4349	-60.0628	-148.338	-28.7161	-89.7434	-165.661	-17.9661	-20.5898	-172.483	-23.913	-51.6651	-177.995	-38.0507	-75.4436	-186.452	-30.172	-4.19336	-195.811	-37.3285	-27.6848	-198.191	-48.2482	-47.7402	-165.868	-9.90424	30.2642	-161.01	-10.4279	58.6117	-131.609	-6.06472	40.9751	
3	0.025	-99.8022	-26.0983	42.3818	-86.4323	-38.0246	22.5159	-71.151	-47.7517	-1.63971	-63.056	-58.0388	-17.9268	-124.188	-11.0556	-31.2348	-115.539	-14.9527	-59.0701	-115.979	-26.2552	-78.8407	-150.212	-11.9066	-29.359	-151.974	-17.3599	-62.4083	-150.736	-34.5396	-89.6693	-167.091	-22.3389	-23.9153	-172.825	-30.5189	-51.2692	-172.51	-44.3021	-71.8871	-181.54	-36.8059	-4.78236	-189.387	-44.0352	-30.1566	-192.32	-59.5063	-49.718	-167.765	-14.2888	26.5315	-168.865	-13.9387	57.3348	-134.964	-4.87364	37.7654	
4	0.0333333	-109.056	-16.7851	46.288	-88.3779	-23.8831	20.4369	-70.0781	-29.654	-0.65191	-60.2118	-38.9191	-20.4487	-130.113	-6.11228	-27.9764	-124.959	-9.18044	-54.686	-115.339	-18.9022	-78.5884	-155.103	-14.8099	-35.5318	-151.93	-23.6975	-64.9719	-145.248	-39.0108	-88.2845	-170.69	-35.7331	-23.6708	-166.32	-43.817	-53.8003	-158.759	-64.4562	-72.5499	-181.27	-53.7452	-8.19561	-177.268	-60.6893	-30.2169	-170.787	-79.7227	-48.7648	-174.635	-22.618	26.4588	-170.725	-19.3704	54.7045	-145.433	-5.24716	37.2901	
5	0.0416667	-118.675	-3.41285	41.5007	-97.5276	-4.8197	20.6506	-79.1619	-6.24764	-4.76412	-64.228	-11.1563	-21.8982	-140.867	-3.16054	-27.5798	-134.97	-9.15907	-58.9062	-121.469	-12.4682	-78.4848	-161.554	-25.7883	-34.7796	-154.46	-29.2491	-63.1528	-138.962	-45.9485	-87.0954	-165.22	-48.1775	-24.2233	-155.492	-58.418	-52.2942	-138.325	-72.8048	-66.112	-166.573	-66.0719	-8.49907	-158.223	-74.759	-27.7838	-138.853	-90.3424	-41.2838	-174.166	-32.4129	28.8085	-175.235	-32.2786	56.1709	-155.189	-4.33785	37.3763	
6	0.05	-131.658	6.87526	40.1577	-109.321	10.8218	18.5431	-92.0873	11.5545	-0.869392	-77.8502	10.1817	-20.8234	-152.56	-9.59237	-33.6829	-144.037	-5.65867	-56.4857	-129.09	-10.774	-79.268	-162.503	-35.2884	-35.8386	-154.306	-35.3687	-61.6969	-129.827	-45.2578	-88.132	-155.875	-52.1573	-22.5271	-142.415	-62.8996	-48.5944	-113.993	-68.9503	-64.0914	-149.654	-76.6308	-7.22606	-131.88	-83.0909	-27.322	-110.044	-87.1877	-36.0859	-170.973	-42.3965	28.2437	-175.272	-43.5692	57.3139	-168.543	-12.2726	37.3948	
7	0.0583333	-148.903	9.58596	42.3695	-127.454	18.8287	19.2952	-110.041	27.3637	-7.55384	-94.8005	29.3856	-23.4802	-161.416	-15.1832	-34.3252	-151.075	-10.5217	-62.6961	-136.861	-12.5114	-81.1864	-160.636	-42.1187	-36.6415	-150.92	-43.5589	-62.6494	-122.335	-41.121	-89.3391	-148.166	-57.1422	-23.9514	-129.286	-65.7438	-46.8004	-103.474	-62.864	-59.0399	-132.968	-77.2457	-8.45445	-116.165	-77.1066	-22.1706	-88.868	-72.296	-32.7904	-167.772	-56.279	28.1346	-172.272	-52.5248	54.5726	-177.449	-18.7618	33.8835	
8	0.0666667	-167.038	3.52742	36.507	-150.844	18.7414	13.1612	-137.209	28.8855	-9.13463	-121.527	34.5789	-30.3126	-168.312	-27.0919	-34.0218	-159.03	-22.4948	-65.5035	-144.067	-12.8089	-86.9688	-157.373	-51.0434	-34.1684	-142.352	-52.8868	-65.0844	-120.541	-42.3285	-87.4388	-137.664	-62.228	-24.6395	-118.652	-62.2189	-45.608	-94.9709	-47.4316	-60.5342	-119.269	-72.1586	-2.10062	-102.21	-66.9947	-18.5868	-78.5604	-55.7254	-29.7535	-160.517	-62.3265	25.6628	-165.763	-61.4148	57.1731	-180.602	-33.7716	33.1468	
9	0.075	-181.25	-12.2852	35.9516	-174.162	11.8262	9.76749	-164.801	25.682	-12.3015	-147.294	29.8339	-29.5572	-172.853	-41.819	-36.8139	-165.549	-39.1186	-62.4233	-153.858	-27.3931	-86.8191	-154.054	-60.9844	-37.463	-142.76	-57.4568	-65.1667	-122.707	-42.5433	-87.57	-133.817	-63.8769	-26.939	-113.987	-61.6562	-44.9235	-96.0592	-41.152	-60.7981	-114.63	-65.2383	-3.05889	-93.6102	-56.4334	-19.5254	-79.3135	-40.8649	-30.9626	-151.634	-72.8657	26.7632	-158.509	-71.5076	52.9688	-183.146	-50.3714	32.6639	
10	0.0833333	-190.466	-25.8444	32.1711	-185.65	-3.44275	8.5327	-176.502	11.9011	-16.2376	-160.993	20.5724	-35.5925	-173.528	-55.6292	-38.1469	-172.083	-48.5573	-64.6827	-160.18	-34.4428	-88.9048	-151.32	-69.1674	-39.7869	-142.786	-62.2236	-64.9376	-124.527	-43.7366	-87.3715	-127.088	-68.1967	-24.1478	-114.383	-59.5863	-46.985	-101.701	-35.0496	-64.4303	-112.657	-64.2767	-4.78293	-95.0457	-53.4481	-22.4068	-84.2385	-34.8465	-34.1261	-146.878	-78.8271	26.4985	-152.926	-77.2667	51.4825	-180.652	-66.0671	31.7851	
11	0.0916667	-190.622	-34.1251	36.0474	-191.691	-8.80111	8.64584	-180.738	4.86666	-16.8298	-161.091	8.94224	-32.5249	-180.069	-61.455	-38.8326	-178.459	-52.6818	-66.7514	-170.958	-39.323	-85.9365	-155.653	-72.4318	-38.0909	-145.674	-63.8589	-67.7295	-133.118	-38.5588	-90.8459	-132.322	-69.4702	-24.8615	-122.915	-57.6014	-49.7753	-109.729	-33.5909	-62.7715	-114.918	-65.9572	-12.4526	-102.586	-55.7554	-25.4743	-89.1179	-33.6473	-39.4247	-147.08	-84.3542	23.6174	-150.299	-83.2814	53.2254	-183.003	-70.4966	30.0574	
12	0.1	-190.346	-35.7675	32.2326	-183.844	-13.158	8.55178	-173.738	2.67228	-17.7957	-153.915	5.08923	-35.1353	-185.847	-61.298	-39.5798	-186.234	-51.1056	-65.3946	-178.407	-37.0344	-84.1136	-162.735	-72.8941	-40.6525	-152.336	-62.6194	-69.3467	-140.391	-40.0996	-87.9497	-135.709	-72.1377	-27.3751	-128.4	-55.2015	-53.2668	-116.639	-28.9469	-60.4321	-118.215	-70.3542	-8.70667	-106.956	-60.8824	-27.6358	-97.1806	-38.1823	-45.1973	-153.622	-82.9189	21.2716	-155.337	-83.0387	54.7761	-184.049	-71.7456	33.5451	
13	0.108333	-191.233	-30.3593	35.699	-182.124	-8.72272	4.92486	-166.682	0.378276	-20.9854	-144.397	-0.073065	-35.6532	-185.272	-60.9989	-35.6877	-186.71	-51.0587	-62.8272	-177.608	-30.8959	-85.5673	-164.973	-73.3803	-41.7323	-157.859	-61.0337	-69.0657	-145.525	-37.083	-86.439	-141.451	-70.8803	-29.9264	-130.627	-56.4677	-49.994	-121.004	-26.7473	-55.1436	-124.52	-72.375	-13.9238	-109.616	-60.4519	-32.8029	-103.495	-40.655	-46.1141	-155.828	-82.1767	22.1754	-158.653	-83.3875	52.9475	-187.979	-71.5512	36.2759	
14	0.116667	-192.332	-28.7699	34.1587	-179.49	-8.52118	7.28964	-162.146	0.0168465	-19.2335	-139.868	-4.45207	-33.1204	-185.48	-60.4114	-38.3631	-184.193	-49.9339	-63.8005	-175.806	-29.9888	-83.6744	-167.128	-72.3909	-37.8152	-159.114	-61.1338	-67.2032	-140.41	-32.0389	-85.1406	-142.711	-70.2555	-28.2247	-129.441	-52.4744	-49.1017	-122.519	-23.9818	-48.3193	-122.416	-74.4996	-11.6802	-111.902	-65.9395	-29.5009	-102.509	-40.3555	-46.0474	-154.676	-84.2533	26.8128	-160.018	-79.8878	53.1453	-187.57	-70.4364	34.2527	
15	0.125	-190.402	-28.4517	33.4011	-174.555	-10.9102	4.73629	-156.017	-4.28596	-22.9312	-135.556	-5.16805	-32.4196	-187.259	-60.1976	-36.8842	-186.538	-48.9601	-64.4926	-171.992	-31.28	-86.4332	-163.872	-75.3831	-36.0986	-156.783	-61.0755	-69.099	-140.557	-35.6207	-83.0327	-140.801	-71.7944	-25.6288	-129.187	-52.9845	-46.5459	-118.912	-22.7409	-42.7114	-122.427	-76.3119	-9.30332	-113.676	-66.4811	-29.862	-105.279	-43.1431	-44.4806	-156.894	-83.3406	24.0488	-161.108	-81.049	54.5481	-190.421	-71.2712	31.4284	
16	0.133333	-190.728	-28.4825	34.484	-172.422	-11.2347	1.8967	-154.496	-5.85598	-19.5178	-131.532	-10.7112	-34.8134	-186.423	-61.8467	-34.5343	-181.687	-50.8774	-65.7864	-173.13	-34.7821	-84.7897	-162.169	-76.5413	-33.9678	-152.656	-65.992	-66.0872	-137.398	-38.6433	-80.934	-142.248	-70.6492	-26.6499	-124.455	-52.6458	-45.4569	-116.32	-19.8762	-40.2144	-123.361	-76.8895	-9.58454	-112.463	-68.8875	-27.9319	-103.676	-47.09	-41.1561	-157.749	-84.6605	29.0967	-163.162	-83.0773	53.3983	-188.866	-72.1887	31.5777	
17	0.141667	-191.034	-27.902	32.4794	-172.891	-11.1255	7.31312	-154.572	-5.00092	-17.6594	-132.514	-7.90746	-34.2183	-189.134	-60.3655	-33.9356	-181.814	-51.5079	-65.4252	-173.511	-35.5556	-83.9804	-163.235	-76.705	-38.4125	-155.436	-65.5706	-65.2918	-134.268	-36.2248	-81.1015	-139.445	-72.4836	-26.0571	-125.043	-55.5957	-44.4753	-120.01	-21.7647	-41.8958	-126.001	-77.4981	-6.53402	-110.11	-69.2216	-28.5876	-102.144	-51.5086	-40.1094	-159.816	-85.0569	26.2587	-161.318	-83.6167	53.9976	-187.945	-71.859	33.9512	
18	0.15	-191.215	-27.0051	31.4679	-173.032	-10.8982	8.7019	-153.174	-2.73898	-20.3954	-133.004	-8.11612	-30.5851	-186.671	-58.8165	-33.2813	-183.713	-50.0159	-64.012	-170.635	-34.7476	-84.1102	-164.563	-75.1394	-35.344	-150.612	-63.8749	-67.0866	-136.225	-40.1379	-80.3554	-140.571	-71.9601	-23.812	-122.877	-53.5665	-44.7168	-115.622	-20.1075	-42.4142	-124.499	-76.5953	-5.32205	-111.791	-69.0006	-28.8045	-102.507	-53.0106	-41.5829	-160.529	-82.6437	27.9922	-162.58	-83.4843	57.1356	-186.604	-68.9467	34.9969	
19	0.158333	-188.862	-26.0714	33.7055	-173.905	-4.80088	7.64749	-154.724	1.81416	-15.9308	-133.045	1.05191	-30.733	-183.044	-57.7614	-38.1765	-180.925	-47.7743	-62.014	-167.737	-29.6975	-82.7693	-161.686	-72.495	-38.8231	-154.065	-59.6575	-66.0747	-134.754	-36.3565	-81.0194	-136.736	-70.4587	-26.7089	-125.232	-55.013	-44.809	-113.705	-22.0489	-46.5749	-122.674	-75.8649	-2.75268	-108.528	-70.809	-24.2591	-96.4743	-52.7895	-39.7454	-159.68	-83.5681	25.3363	-163.129	-78.6842	57.9217	-191.761	-65.5825	34.2204	
20	0.166667	-187.61	-23.8468	36.9836	-172.172	-1.19949	7.3358	-152.771	7.50592	-16.1204	-128.958	5.53798	-28.2801	-180.624	-52.1625	-33.9056	-173.333	-40.348	-64.6413	-161.016	-21.3361	-82.6637	-157.487	-68.311	-35.473	-151.119	-55.7957	-65.0409	-130.265	-30.2167	-81.361	-136.645	-68.6446	-23.5509	-119.452	-52.6762	-47.3376	-111.028	-25.2043	-50.3078	-121.353	-73.2602	-3.34984	-106.461	-68.538	-23.4419	-95.8187	-52.8004	-40.4589	-157.444	-78.5969	25.9875	-162.218	-77.6843	53.4286	-186.503	-65.3132	30.8099	
21	0.175	-188.23	-21.7423	33.9509	-173.329	0.115304	13.3104	-152.411	9.19409	-12.6437	-130.091	5.40343	-20.5559	-178.892	-47.1875	-36.049	-174.624	-34.6618	-62.121	-161.642	-17.353	-79.4229	-160.126	-63.3556	-39.5204	-145.04	-50.6687	-64.9367	-127.832	-24.2936	-75.9149	-137.909	-67.2316	-22.5089	-121.036	-51.2896	-46.8091	-108.153	-24.1098	-46.634	-122.046	-72.0428	-6.23758	-107.001	-65.478	-26.5584	-94.2263	-49.4244	-37.176	-157.883	-77.5168	24.9426	-162.101	-77.2407	56.8742	-186.976	-62.0179	32.6759	
22	0.183333	-188.426	-19.5377	37.9718	-171.654	-1.56359	9.4276	-150.078	5.63818	-13.373	-124.064	-2.24698	-21.8678	-181.738	-44.3571	-32.0263	-173.553	-33.0914	-60.4441	-159.652	-15.6638	-76.1314	-159.335	-60.9592	-36.0363	-142.582	-50.9277	-59.4237	-120.679	-16.7297	-65.2644	-140.868	-63.7659	-20.8744	-119.461	-50.4641	-42.0964	-111.896	-19.1546	-38.0993	-121.26	-71.8318	-3.06493	-105.918	-62.036	-24.0175	-93.3123	-42.6329	-32.6297	-156.889	-77.9928	27.0708	-164.442	-78.3973	58.5642	-189.476	-60.646	33.5069	
